<svg width="1066" height="900" viewBox="0 0 1066 900" fill="none" xmlns="http://www.w3.org/2000/svg">
  <path
    d="M399.733 0.999986C389.067 2.86665 376.533 7.53332 368.4 12.8667C354.933 21.6667 347.333 31.4 331.467 60.7333C315.2 91 309.867 97.2667 296.933 102.2C290 104.733 286.667 105 261.467 105H233.6L233.067 86.6C232.667 69.4 232.4 67.9333 228.933 62.0667C226.533 57.9333 223.067 54.4667 218.933 52.0667L212.667 48.3333H155.333C98.5333 48.3333 98 48.3333 92.4 51.2667C86.4 54.4667 81.0666 60.6 78.6666 67C77.7333 69.2667 77.2 78.8667 77.2 89.5333C77.2 107.4 77.0666 107.933 74.2666 108.733C67.2 110.6 47.8666 121.4 39.7333 128.2C22.2666 142.733 8.13331 165 2.66664 186.867C-2.28882e-05 197.267 -2.28882e-05 202.2 -2.28882e-05 433.933C-2.28882e-05 644.067 0.266644 671.533 2.13331 680.733C6.53331 702.6 14.5333 716.867 32 734.333C49.4666 751.8 63.7333 759.8 85.6 764.2C94.8 766.067 128.4 766.333 400.267 766.333L704.667 766.467L712.8 783.267L720.933 800.2L711.733 820.2C706.667 831.267 698.533 847.4 693.733 855.933C683.467 874.467 682 879.4 684.933 886.6C690.533 900.467 708.667 903.933 718 892.733C720 890.467 728.533 874.467 736.933 857.133C745.467 839.8 752.533 825.533 752.667 825.4C752.8 825.133 760.267 824.067 769.467 822.867C821.067 816.333 867.6 799.8 905.6 774.333L917.067 766.6L947.6 765.933C982.8 765.267 986.933 764.467 1008 754.067C1020.27 748.067 1023.47 745.667 1034 735.133C1046.4 722.6 1052.67 713.533 1058.13 699.933C1065.6 681.267 1065.33 692.467 1065.33 443.933C1065.33 292.867 1064.8 211.133 1064 203.8C1061.2 181.533 1053.33 164.2 1037.73 145.8C1024 129.267 1002.8 115.667 980.667 108.733C971.6 105.8 969.2 105.8 878 105L784.667 104.333L777.067 100.6C772.8 98.4667 767.467 94.4667 765.067 91.6667C762.667 88.7333 754.4 74.8667 746.667 60.7333C734.4 38.2 731.333 33.6667 722.533 24.7333C714.8 16.8667 710 13.2667 702.533 9.66665C681.6 -0.200014 692 0.466652 541.333 0.199986C466.933 0.0666523 403.2 0.466652 399.733 0.999986ZM682.533 48.3333C692.267 53.8 695.867 58.3333 712.267 87.2667C720.133 101 729.067 115.267 732 118.867C744.933 134.467 763.333 144.867 783.067 147.533C789.733 148.467 825.333 149 880 149C962.267 149 966.8 149.133 974.8 151.667C990.533 156.467 1006.53 169.933 1015.2 185.4C1024.53 202.2 1024 185 1024 436.467C1024 581.8 1023.47 665.933 1022.67 670.467C1019.2 689.133 1004.27 708.867 987.6 716.867C979.6 720.6 959.6 725 957.867 723.267C957.467 722.867 960.133 718.867 963.733 714.467C998.667 671 1014.67 587.133 1004.53 499.8C998.933 451.133 987.067 399.667 979.2 390.467C975.067 385.533 967.2 383.133 959.467 384.467C949.067 386.067 918 395.533 900 402.333C863.467 416.067 818.933 440.067 793.067 459.8C787.333 464.067 782.667 467.267 782.667 466.733C782.667 466.067 783.6 458.467 784.667 449.667C794.933 368.067 760.933 283.8 696.133 229.8C632.533 176.867 540.8 160.6 459.467 187.8C397.733 208.333 349.2 249.933 319.467 307.667C284.4 375.667 282.667 460.067 314.8 527.667C358.4 619.267 448.8 673.8 550.667 669.933C597.2 668.2 643.867 652.2 679.867 625.933L686.933 620.733L685.867 630.467C685.2 635.933 684.667 652.067 684.8 666.333C684.933 691.267 685.733 699.133 691.067 721.133C691.467 722.867 100 722.6 92.2666 720.867C81.7333 718.6 70 711.933 61.7333 703.533C52.6666 694.333 47.6 686.2 44 674.467C41.3333 666.2 41.3333 661.933 41.3333 435.8C41.3333 185.667 40.9333 198.867 48.5333 183.8C52.8 175.533 63.6 163.8 71.7333 158.467C86.2666 149.267 79.0666 149.8 194 149L298 148.333L306.667 145.267C321.2 140.067 330.533 134.2 340.533 124.333C348.667 116.2 352 111.267 363.867 89.6667C381.067 58.4667 384 54.0667 390.133 50.3333C400.8 43.6667 396.933 43.8 540.667 44.0667L675.333 44.3333L682.533 48.3333ZM193.067 101.267L193.467 105H155.6H117.733L118.4 101L118.933 97L155.867 97.2667L192.667 97.6667L193.067 101.267ZM558.8 218.333C585.2 221 615.867 230.2 638.267 242.333C682.533 266.2 718.533 310.2 734.4 359.667C741.6 382.2 743.333 393.8 743.333 421C743.333 448.6 742 457.8 735.067 481C716 544.6 666.533 596.067 604.267 617.133C582.667 624.467 566.133 626.867 538.667 626.867C501.467 626.867 478 621.533 448 606.2C374.4 568.467 331.733 495.667 335.067 413.4C337.067 360.333 355.2 317.4 391.333 279.933C435.733 233.667 494.667 212.067 558.8 218.333ZM950.533 437.933C954.667 453.933 956.133 461 959.2 479.667C969.6 543.133 966.667 601.933 951.2 646.733C941.467 674.6 929.733 693 908.133 714.467C876.8 745.533 836.667 766.6 787.467 777.667C778.8 779.533 771.333 780.867 770.933 780.467C770 779.533 784.4 744.067 790.933 731.267C803.6 706.867 837.2 684.333 890.667 664.333C902.533 659.8 906 657.533 908.133 652.733C913.067 641.133 906.133 628.067 894.267 626.733C887.067 625.933 865.733 632.733 845.467 642.467C837.867 646.067 831.467 648.867 831.2 648.6C830.8 648.2 856.133 608.6 863.333 598.333C866.267 594.333 877.2 579.4 887.733 565.133C898.267 551 907.467 537.8 908.133 535.933C910.133 530.867 908.267 522.867 904.133 518.467C899.733 513.667 892.4 512.067 885.333 514.2C879.067 516.067 874.4 521.133 853.333 549.267C830.667 579.267 814.667 603.667 797.467 634.333C786.4 654.067 754.4 721.267 746.533 741.533C745.067 745.267 743.333 748.867 742.667 749.533C741.333 750.867 734 728.333 730.667 712.333C711.067 618.2 746.267 541.8 836.267 482.6C853.467 471.267 875.867 459.267 894 451.667C907.333 445.933 944.667 433 947.6 433C948.533 433 949.867 435.267 950.533 437.933Z"
    fill="white" />
  <path
    d="M141.2 197.267C138.667 199 135.333 203 133.6 206.333C130.533 212.333 130.533 212.333 130.933 266.467L131.333 320.467L134.933 325.933C143.6 339.133 163.867 337.8 170.933 323.667C173.067 319.533 173.333 314.333 173.333 277.267V235.667H215.733C254.4 235.667 258.4 235.4 262.667 233.133C276.133 226.067 276.533 207.533 263.467 197.8C259.867 195.133 258 195 202.8 194.6L145.867 194.2L141.2 197.267Z"
    fill="white" />
  <path
    d="M813.333 197.267C806 202.333 803.467 206.867 803.467 214.733C803.467 223.267 806.667 229 813.333 232.867C818.133 235.533 820.133 235.667 861.067 235.667H903.867L904.267 277.933C904.667 318.867 904.8 320.467 907.6 325C914 335.267 928.533 338.333 937.733 331.267C946.667 324.467 946.8 322.867 946.4 263C946 211.933 945.867 209.4 943.2 205C941.733 202.467 938.133 199 935.2 197.4C930 194.467 929.467 194.333 873.867 194.333C817.867 194.333 817.733 194.333 813.333 197.267Z"
    fill="white" />
  <path
    d="M143.333 518.867C138.4 521.133 134 525.8 132.133 530.733C131.2 533.267 130.667 554.733 130.667 592.867V651.267L133.733 657.133C135.733 660.733 138.8 664.067 142.133 665.933C147.333 668.867 147.867 669 203.467 669C259.467 669 259.6 669 264 665.933C271.6 660.867 274 656.333 274 647.8C273.867 642.067 273.2 639.133 270.8 635.933C264.533 627.133 264 627 215.733 626.6L172.133 626.2L171.733 578.333C171.333 532.467 171.2 530.333 168.533 526.867C167.067 524.867 164.4 522.067 162.533 520.733C158.133 517.533 148.4 516.467 143.333 518.867Z"
    fill="white" />
  <path
    d="M519.333 263.667C458.267 270.333 404.667 314.067 385.467 372.867C375.467 403.4 375.733 447 386.133 475.8C394.667 499.533 406.4 518.2 424 535.667C447.6 559.267 473.867 573.533 506.667 580.6C522.267 583.933 554.933 583.933 570.4 580.467C619.067 569.933 658.4 539.667 680.667 495.667C686.133 484.867 692 468.333 694.667 456.467C699.333 435.667 698.667 404.067 693.333 382.867C680.133 331.4 641.6 289.8 589.733 271.267C570.8 264.467 541.467 261.267 519.333 263.667ZM568 308.867C588.667 314.467 605.067 323.933 620.4 339.133C653.867 372.467 664.8 421.533 648.533 464.867C641.2 484.467 624.133 506.067 605.867 519.133C562.667 549.933 502.133 547.267 461.067 512.733C444.933 499.133 429.6 474.2 423.867 452.333C419.6 436.6 419.6 409.8 423.867 394.467C429.733 372.6 438.667 356.867 454.533 340.6C471.467 323 489.733 312.867 513.333 307.533C528 304.2 553.2 304.867 568 308.867Z"
    fill="white" />
  <path
    d="M513.2 350.867C482.933 361.533 461.6 391.4 462.8 421.533C463.467 434.867 465.733 439 474.933 442.867C483.2 446.333 489.733 445 496.133 438.6C500.267 434.333 501.2 432.333 502.667 423.667C503.6 418.2 505.067 411.8 506 409.667C510.133 399.4 520.933 391.8 535.067 389.133C548 386.733 553.2 382.867 556 373.667C557.733 367.933 556.4 359.933 552.933 355.533C546.4 347 529.467 345.133 513.2 350.867Z"
    fill="white" />
</svg>