<svg width="1066" height="900" fill="none" xmlns="http://www.w3.org/2000/svg"><path d="M399.733 1c-10.666 1.867-23.2 6.533-31.333 11.867-13.467 8.8-21.067 18.533-36.933 47.866C315.2 91 309.867 97.267 296.933 102.2c-6.933 2.533-10.266 2.8-35.466 2.8H233.6l-.533-18.4c-.4-17.2-.667-18.667-4.134-24.533a27.65 27.65 0 00-10-10l-6.266-3.734h-57.334c-56.8 0-57.333 0-62.933 2.934-6 3.2-11.333 9.333-13.733 15.733-.934 2.267-1.467 11.867-1.467 22.533 0 17.867-.133 18.4-2.933 19.2C67.2 110.6 47.867 121.4 39.733 128.2c-17.466 14.533-31.6 36.8-37.066 58.667C0 197.267 0 202.2 0 433.933c0 210.134.267 237.6 2.133 246.8 4.4 21.867 12.4 36.134 29.867 53.6C49.467 751.8 63.733 759.8 85.6 764.2c9.2 1.867 42.8 2.133 314.667 2.133l304.4.134 8.133 16.8 8.133 16.933-9.2 20c-5.066 11.067-13.2 27.2-18 35.733-10.266 18.534-11.733 23.467-8.8 30.667 5.6 13.867 23.734 17.333 33.067 6.133 2-2.266 10.533-18.266 18.933-35.6 8.534-17.333 15.6-31.6 15.734-31.733.133-.267 7.6-1.333 16.8-2.533 51.6-6.534 98.133-23.067 136.133-48.534l11.467-7.733 30.533-.667c35.2-.666 39.333-1.466 60.4-11.866 12.27-6 15.47-8.4 26-18.934 12.4-12.533 18.67-21.6 24.13-35.2 7.47-18.666 7.2-7.466 7.2-256 0-151.066-.53-232.8-1.33-240.133-2.8-22.267-10.67-39.6-26.27-58-13.73-16.533-34.93-30.133-57.063-37.067C971.6 105.8 969.2 105.8 878 105l-93.333-.667-7.6-3.733c-4.267-2.133-9.6-6.133-12-8.933-2.4-2.934-10.667-16.8-18.4-30.934-12.267-22.533-15.334-27.066-24.134-36-7.733-7.866-12.533-11.466-20-15.066C681.6-.2 692 .467 541.333.2c-74.4-.133-138.133.267-141.6.8zm282.8 47.333c9.734 5.467 13.334 10 29.734 38.934 7.866 13.733 16.8 28 19.733 31.6 12.933 15.6 31.333 26 51.067 28.666 6.666.934 42.266 1.467 96.933 1.467 82.267 0 86.8.133 94.8 2.667 15.733 4.8 31.73 18.266 40.4 33.733 9.33 16.8 8.8-.4 8.8 251.067 0 145.333-.53 229.466-1.33 234-3.47 18.666-18.4 38.4-35.07 46.4-8 3.733-28 8.133-29.733 6.4-.4-.4 2.266-4.4 5.866-8.8C998.667 671 1014.67 587.133 1004.53 499.8c-5.597-48.667-17.463-100.133-25.33-109.333-4.133-4.934-12-7.334-19.733-6-10.4 1.6-41.467 11.066-59.467 17.866-36.533 13.734-81.067 37.734-106.933 57.467-5.734 4.267-10.4 7.467-10.4 6.933 0-.666.933-8.266 2-17.066 10.266-81.6-23.734-165.867-88.534-219.867-63.6-52.933-155.333-69.2-236.666-42-61.734 20.533-110.267 62.133-140 119.867-35.067 68-36.8 152.4-4.667 220 43.6 91.6 134 146.133 235.867 142.266 46.533-1.733 93.2-17.733 129.2-44l7.066-5.2-1.066 9.734c-.667 5.466-1.2 21.6-1.067 35.866.133 24.934.933 32.8 6.267 54.8.4 1.734-591.067 1.467-598.8-.266C81.733 718.6 70 711.933 61.733 703.533 52.667 694.333 47.6 686.2 44 674.467c-2.667-8.267-2.667-12.534-2.667-238.667 0-250.133-.4-236.933 7.2-252 4.267-8.267 15.067-20 23.2-25.333C86.267 149.267 79.067 149.8 194 149l104-.667 8.667-3.066c14.533-5.2 23.866-11.067 33.866-20.934 8.134-8.133 11.467-13.066 23.334-34.666 17.2-31.2 20.133-35.6 26.266-39.334 10.667-6.666 6.8-6.533 150.534-6.266l134.666.266 7.2 4zm-489.466 52.934l.4 3.733h-75.734l.667-4 .533-4 36.934.267 36.8.4.4 3.6zM558.8 218.333c26.4 2.667 57.067 11.867 79.467 24C682.533 266.2 718.533 310.2 734.4 359.667c7.2 22.533 8.933 34.133 8.933 61.333 0 27.6-1.333 36.8-8.266 60-19.067 63.6-68.534 115.067-130.8 136.133-21.6 7.334-38.134 9.734-65.6 9.734-37.2 0-60.667-5.334-90.667-20.667-73.6-37.733-116.267-110.533-112.933-192.8 2-53.067 20.133-96 56.266-133.467 44.4-46.266 103.334-67.866 167.467-61.6zm391.733 219.6c4.134 16 5.6 23.067 8.667 41.734 10.4 63.466 7.467 122.266-8 167.066-9.733 27.867-21.467 46.267-43.067 67.734-31.333 31.066-71.466 52.133-120.666 63.2-8.667 1.866-16.134 3.2-16.534 2.8-.933-.934 13.467-36.4 20-49.2 12.667-24.4 46.267-46.934 99.734-66.934 11.866-4.533 15.333-6.8 17.466-11.6 4.934-11.6-2-24.666-13.866-26-7.2-.8-28.534 6-48.8 15.734-7.6 3.6-14 6.4-14.267 6.133-.4-.4 24.933-40 32.133-50.267 2.934-4 13.867-18.933 24.4-33.2 10.534-14.133 19.734-27.333 20.4-29.2 2-5.066.134-13.066-4-17.466-4.4-4.8-11.733-6.4-18.8-4.267-6.266 1.867-10.933 6.933-32 35.067-22.666 30-38.666 54.4-55.866 85.066-11.067 19.734-43.067 86.934-50.934 107.2-1.466 3.734-3.2 7.334-3.866 8-1.334 1.334-8.667-21.2-12-37.2-19.6-94.133 15.6-170.533 105.6-229.733 17.2-11.333 39.6-23.333 57.733-30.933C907.333 445.933 944.667 433 947.6 433c.933 0 2.267 2.267 2.933 4.933z" fill="#fff"/><path d="M141.2 197.267c-2.533 1.733-5.867 5.733-7.6 9.066-3.067 6-3.067 6-2.667 60.134l.4 54 3.6 5.466c8.667 13.2 28.934 11.867 36-2.266 2.134-4.134 2.4-9.334 2.4-46.4v-41.6h42.4c38.667 0 42.667-.267 46.934-2.534 13.466-7.066 13.866-25.6.8-35.333-3.6-2.667-5.467-2.8-60.667-3.2l-56.933-.4-4.667 3.067zM813.333 197.267c-7.333 5.066-9.866 9.6-9.866 17.466 0 8.534 3.2 14.267 9.866 18.134 4.8 2.666 6.8 2.8 47.734 2.8h42.8l.4 42.266c.4 40.934.533 42.534 3.333 47.067 6.4 10.267 20.933 13.333 30.133 6.267 8.934-6.8 9.067-8.4 8.667-68.267-.4-51.067-.533-53.6-3.2-58-1.467-2.533-5.067-6-8-7.6-5.2-2.933-5.733-3.067-61.333-3.067-56 0-56.134 0-60.534 2.934zM143.333 518.867c-4.933 2.266-9.333 6.933-11.2 11.866-.933 2.534-1.466 24-1.466 62.134v58.4l3.066 5.866c2 3.6 5.067 6.934 8.4 8.8 5.2 2.934 5.734 3.067 61.334 3.067 56 0 56.133 0 60.533-3.067 7.6-5.066 10-9.6 10-18.133-.133-5.733-.8-8.667-3.2-11.867-6.267-8.8-6.8-8.933-55.067-9.333l-43.6-.4-.4-47.867c-.4-45.866-.533-48-3.2-51.466-1.466-2-4.133-4.8-6-6.134-4.4-3.2-14.133-4.266-19.2-1.866zM519.333 263.667c-61.066 6.666-114.666 50.4-133.866 109.2-10 30.533-9.734 74.133.666 102.933 8.534 23.733 20.267 42.4 37.867 59.867 23.6 23.6 49.867 37.866 82.667 44.933 15.6 3.333 48.266 3.333 63.733-.133 48.667-10.534 88-40.8 110.267-84.8 5.466-10.8 11.333-27.334 14-39.2 4.666-20.8 4-52.4-1.334-73.6-13.2-51.467-51.733-93.067-103.6-111.6-18.933-6.8-48.266-10-70.4-7.6zm48.667 45.2c20.667 5.6 37.067 15.066 52.4 30.266 33.467 33.334 44.4 82.4 28.133 125.734-7.333 19.6-24.4 41.2-42.666 54.266-43.2 30.8-103.734 28.134-144.8-6.4-16.134-13.6-31.467-38.533-37.2-60.4-4.267-15.733-4.267-42.533 0-57.866 5.866-21.867 14.8-37.6 30.666-53.867 16.934-17.6 35.2-27.733 58.8-33.067C528 304.2 553.2 304.867 568 308.867z" fill="#fff"/><path d="M513.2 350.867c-30.267 10.666-51.6 40.533-50.4 70.666.667 13.334 2.933 17.467 12.133 21.334 8.267 3.466 14.8 2.133 21.2-4.267 4.134-4.267 5.067-6.267 6.534-14.933.933-5.467 2.4-11.867 3.333-14 4.133-10.267 14.933-17.867 29.067-20.534 12.933-2.4 18.133-6.266 20.933-15.466 1.733-5.734.4-13.734-3.067-18.134-6.533-8.533-23.466-10.4-39.733-4.666z" fill="#fff"/></svg>